<svg width="306" height="29" viewBox="0 0 306 29" fill="none" xmlns="http://www.w3.org/2000/svg">
<path d="M18.925 2.8C19.333 2.8 19.669 2.944 19.933 3.232C20.221 3.496 20.365 3.832 20.365 4.24V8.092C20.365 8.884 20.041 9.28 19.393 9.28H18.493C17.845 9.28 17.521 8.884 17.521 8.092V5.644H12.085V25.156H13.021C13.813 25.156 14.209 25.48 14.209 26.128V27.028C14.209 27.676 13.813 28 13.021 28H7.90896C7.14096 28 6.75696 27.676 6.75696 27.028V26.128C6.75696 25.48 7.14096 25.156 7.90896 25.156H8.84496V5.644H3.40896V8.092C3.40896 8.884 3.08496 9.28 2.43696 9.28H1.53696C0.888963 9.28 0.564963 8.884 0.564963 8.092V4.24C0.564963 3.832 0.696963 3.496 0.960963 3.232C1.22496 2.944 1.56096 2.8 1.96896 2.8H18.925ZM45.5756 25.156C46.3437 25.156 46.7277 25.48 46.7277 26.128V27.028C46.7277 27.676 46.3437 28 45.5756 28H40.4636C39.6956 28 39.3116 27.676 39.3116 27.028V26.128C39.3116 25.48 39.6956 25.156 40.4636 25.156H41.3996V18.208C41.3996 16.12 41.1236 14.644 40.5716 13.78C40.0436 12.892 39.1436 12.448 37.8716 12.448C36.9836 12.448 36.1196 12.748 35.2796 13.348C34.4636 13.924 33.7916 14.68 33.2636 15.616C32.7596 16.552 32.5076 17.536 32.5076 18.568V25.156H33.4436C34.2356 25.156 34.6316 25.48 34.6316 26.128V27.028C34.6316 27.676 34.2356 28 33.4436 28H28.3676C27.5756 28 27.1796 27.676 27.1796 27.028V26.128C27.1796 25.48 27.5756 25.156 28.3676 25.156H29.3036V4.204H28.3676C27.5756 4.204 27.1796 3.88 27.1796 3.232V2.332C27.1796 1.684 27.5756 1.36 28.3676 1.36H31.2116C31.5716 1.36 31.8716 1.492 32.1116 1.756C32.3756 1.996 32.5076 2.308 32.5076 2.692V14.032C33.0356 12.784 33.8756 11.74 35.0276 10.9C36.1796 10.06 37.3796 9.64 38.6276 9.64C40.6196 9.64 42.1196 10.324 43.1276 11.692C44.1356 13.036 44.6396 15.04 44.6396 17.704V25.156H45.5756ZM69.5978 18.1C69.5978 18.22 69.5618 18.748 69.4898 19.684H56.7098C56.8298 21.508 57.3578 22.948 58.2938 24.004C59.2298 25.036 60.4778 25.552 62.0378 25.552C63.0938 25.552 63.9338 25.384 64.5578 25.048C65.1818 24.712 65.7698 24.112 66.3218 23.248C66.5138 22.96 66.6938 22.756 66.8618 22.636C67.0538 22.516 67.2698 22.456 67.5098 22.456C67.8698 22.456 68.1818 22.576 68.4458 22.816C68.7338 23.032 68.8778 23.308 68.8778 23.644C68.8778 24.1 68.7098 24.568 68.3738 25.048C67.6778 26.176 66.8138 27.016 65.7818 27.568C64.7498 28.096 63.4658 28.36 61.9298 28.36C60.2258 28.36 58.7258 27.964 57.4298 27.172C56.1578 26.38 55.1618 25.264 54.4418 23.824C53.7458 22.384 53.3978 20.728 53.3978 18.856C53.3978 17.008 53.7458 15.388 54.4418 13.996C55.1378 12.604 56.1218 11.536 57.3938 10.792C58.6658 10.024 60.1418 9.64 61.8218 9.64C64.1498 9.64 66.0218 10.384 67.4378 11.872C68.8778 13.36 69.5978 15.436 69.5978 18.1ZM61.7498 12.304C60.3338 12.304 59.1938 12.736 58.3298 13.6C57.4898 14.44 56.9738 15.664 56.7818 17.272H66.3218C66.2978 13.96 64.7738 12.304 61.7498 12.304ZM266.519 2.8C270.359 2.8 273.311 3.844 275.375 5.932C277.463 7.996 278.507 10.96 278.507 14.824C278.507 17.488 278.015 19.816 277.031 21.808C276.047 23.776 274.643 25.3 272.819 26.38C270.995 27.46 268.859 28 266.411 28H258.275C257.483 28 257.087 27.676 257.087 27.028V26.128C257.087 25.48 257.483 25.156 258.275 25.156H259.211V5.644H258.275C257.483 5.644 257.087 5.32 257.087 4.672V3.772C257.087 3.124 257.483 2.8 258.275 2.8H266.519ZM266.087 25.156C269.015 25.156 271.259 24.268 272.819 22.492C274.403 20.716 275.195 18.196 275.195 14.932C275.195 11.788 274.463 9.46 272.999 7.948C271.535 6.412 269.303 5.644 266.303 5.644H262.451V25.156H266.087ZM301.066 14.284C302.65 14.692 303.862 15.424 304.702 16.48C305.566 17.536 305.998 18.832 305.998 20.368C305.998 22.768 305.098 24.64 303.298 25.984C301.498 27.328 298.978 28 295.738 28H287.926C287.134 28 286.738 27.676 286.738 27.028V26.128C286.738 25.48 287.134 25.156 287.926 25.156H288.862V5.644H287.926C287.134 5.644 286.738 5.32 286.738 4.672V3.772C286.738 3.124 287.134 2.8 287.926 2.8H296.134C301.942 2.8 304.846 4.78 304.846 8.74C304.846 9.964 304.522 11.044 303.874 11.98C303.226 12.916 302.29 13.684 301.066 14.284ZM292.102 5.644V13.456H295.702C297.598 13.456 299.038 13.108 300.022 12.412C301.03 11.692 301.534 10.66 301.534 9.316C301.534 7.996 301.09 7.06 300.202 6.508C299.314 5.932 297.838 5.644 295.774 5.644H292.102ZM295.27 25.156C297.862 25.156 299.746 24.772 300.922 24.004C302.098 23.236 302.686 22 302.686 20.296C302.686 17.632 300.682 16.3 296.674 16.3H292.102V25.156H295.27Z" fill="#a5b1e6"/>
</svg>

